<?xml version="1.0" encoding="UTF-8"?>
<svg width="100pt" height="100pt" version="1.1" viewBox="100 20 510 500"  xmlns="http://www.w3.org/2000/svg" xmlns:xlink="http://www.w3.org/1999/xlink">
 <g>
  <path d="m454.14 160.56-104.14 104.13-104.14-104.13-15.301 15.309 104.13 104.13-104.13 104.14 15.301 15.305 104.14-104.13 104.14 104.13 15.312-15.305-104.14-104.14 104.14-104.13z"/>
  <path d="m350 46.668c-128.66 0-233.33 104.67-233.33 233.33 0 128.66 104.67 233.33 233.33 233.33 128.66 0 233.33-104.67 233.33-233.33 0-128.66-104.67-233.33-233.33-233.33zm0 450c-119.47 0-216.67-97.203-216.67-216.67 0-119.47 97.195-216.67 216.67-216.67 119.46 0 216.67 97.195 216.67 216.67 0 119.46-97.203 216.67-216.67 216.67z"/>
 
 </g>
</svg>
