<?xml version="1.0" encoding="UTF-8"?>
<svg width="100pt" height="100pt" version="1.1" viewBox="100 20 510 520"  xmlns="http://www.w3.org/2000/svg">
 <path d="m349.21 18.848c-144.11 0-261.15 117.02-261.15 261.13s117.04 261.15 261.15 261.15c144.11 0 261.08-117.04 261.08-261.15s-116.97-261.13-261.08-261.13zm0 17.5c134.66 0 243.56 108.98 243.56 243.63s-108.91 243.65-243.56 243.65-243.65-108.99-243.65-243.65 108.99-243.63 243.65-243.63zm0 26.027c-120.09 0-217.67 97.52-217.67 217.61 0 120.09 97.59 217.62 217.67 217.62 120.09 0 217.61-97.539 217.61-217.62 0-120.09-97.52-217.61-217.61-217.61zm0 17.516c110.62 0 200.11 89.461 200.11 200.09 0 110.62-89.477 200.11-200.11 200.11-110.62 0-200.17-89.477-200.17-200.11 0-110.63 89.547-200.09 200.17-200.09zm23.773 109.09c-37.594 0-69.574 22.902-83.52 55.027l-10.27 0.003906c-2.3281-0.007812-4.5664 0.91016-6.2148 2.5547-1.6484 1.6445-2.5781 3.875-2.5781 6.2031s0.92969 4.5625 2.5781 6.207c1.6484 1.6406 3.8867 2.5625 6.2148 2.5508h4.6992c-1.2461 5.9766-1.9297 12.145-1.9297 18.457 0 6.3359 0.66406 12.516 1.8984 18.473l-4.668 0.003906c-4.8281 0.015625-8.7305 3.9336-8.7305 8.7578 0 4.8242 3.9023 8.7422 8.7305 8.7578h10.219c14.07 32.473 46.527 55.027 83.57 55.027 13.484 0 26.801-3.0039 38.367-8.5977l-0.003906 0.003906c4.2539-2.1602 5.9961-7.3242 3.918-11.617-2.0742-4.293-7.207-6.1328-11.539-4.1406-9 4.3516-19.926 6.8516-30.746 6.8516-27.281 0-51.414-15.031-64.086-37.531h52.004v0.003906c4.8281-0.015625 8.7305-3.9336 8.7305-8.7578 0-4.8242-3.9023-8.7422-8.7305-8.7578h-59.008c-1.5234-5.8984-2.4102-12.066-2.4102-18.473 0-6.3711 0.90234-12.531 2.4453-18.457h58.977l-0.003906-0.003906c2.332 0.011718 4.5664-0.91016 6.2148-2.5508 1.6484-1.6445 2.5781-3.8789 2.5781-6.207s-0.92969-4.5586-2.5781-6.2031c-1.6484-1.6445-3.8828-2.5625-6.2148-2.5547h-51.953c12.531-22.262 36.305-37.531 64.035-37.531 10.828 0 21.793 2.5312 30.797 6.8516v0.003906c2.1055 1.1406 4.5859 1.3672 6.8633 0.62891 2.2773-0.73828 4.1562-2.375 5.1914-4.5352 1.0352-2.1562 1.1445-4.6445 0.29688-6.8867-0.84766-2.2383-2.5742-4.0312-4.7812-4.9648-11.562-5.5508-24.891-8.5977-38.367-8.5977z"/>
</svg>
