<?xml version="1.0" encoding="UTF-8"?>
<svg width="120pt" height="100pt" version="1.1" viewBox="100 35 500 490" fill='white' xmlns="http://www.w3.org/2000/svg" xmlns:xlink="http://www.w3.org/1999/xlink">
 <g>
  <path d="m616 448h-26.25v-210h21.91c1.8555 0 3.6367-0.73828 4.9492-2.0508s2.0508-3.0938 2.0508-4.9492v-28c0-1.8555-0.73828-3.6367-2.0508-4.9492s-3.0938-2.0508-4.9492-2.0508h-57.82c-3.8672 0-7 3.1328-7 7v28c0 1.8555 0.73828 3.6367 2.0508 4.9492s3.0938 2.0508 4.9492 2.0508h21.91v210h-26.25c-3.8672 0-7 3.1328-7 7v35c0 1.8555 0.73828 3.6367 2.0508 4.9492s3.0938 2.0508 4.9492 2.0508h66.5c1.8555 0 3.6367-0.73828 4.9492-2.0508s2.0508-3.0938 2.0508-4.9492v-35c0-1.8555-0.73828-3.6367-2.0508-4.9492s-3.0938-2.0508-4.9492-2.0508zm-55.16-238h43.82v14h-43.82zm48.16 273h-52.5v-21h52.5zm-217-343c12.996 0 25.457-5.1641 34.648-14.352 9.1875-9.1914 14.352-21.652 14.352-34.648s-5.1641-25.457-14.352-34.648c-9.1914-9.1875-21.652-14.352-34.648-14.352s-25.457 5.1641-34.648 14.352c-9.1875 9.1914-14.352 21.652-14.352 34.648s5.1641 25.457 14.352 34.648c9.1914 9.1875 21.652 14.352 34.648 14.352zm0-84c9.2812 0 18.184 3.6875 24.75 10.25 6.5625 6.5664 10.25 15.469 10.25 24.75s-3.6875 18.184-10.25 24.75c-6.5664 6.5625-15.469 10.25-24.75 10.25s-18.184-3.6875-24.75-10.25c-6.5625-6.5664-10.25-15.469-10.25-24.75s3.6875-18.184 10.25-24.75c6.5664-6.5625 15.469-10.25 24.75-10.25zm147 291.41-7-112c-0.37891-6.1016-2.0742-12.047-4.9688-17.43 0 0-25.621-46.129-42-75.531-4.3008-7.6836-11.82-13.027-20.492-14.562-8.668-1.5312-17.566 0.91016-24.238 6.6523l-56.98 49-70.629-47.039c-4.9453-3.2891-11.047-4.332-16.801-2.8711-5.8047 1.4414-10.719 5.2852-13.512 10.57-0.78906 1.6484-1.3789 3.3906-1.75 5.1797l-24.781 12.391h0.003906c-3.4336 1.7461-4.8086 5.9375-3.082 9.3789 1.1875 2.3555 3.5938 3.8438 6.2305 3.8516 1.0977 0.011719 2.1836-0.25 3.1484-0.76953l20.648-10.289h0.003906c1.6602 3.1797 4.0586 5.918 7 7.9805l83.578 55.578c3.9062 2.4844 8.5078 3.6445 13.125 3.3047 4.6172-0.33984 9-2.1641 12.496-5.1953l24.641-22.191 24.922 46.41 4.4102 70-32.199-33.949h-0.003907c-12.004-12.664-28.68-19.852-46.129-19.879h-72.871l-28.77-39.551c-6.8008-9.3359-17.145-15.457-28.602-16.926-11.457-1.4727-23.012 1.8398-31.949 9.1562-4.3203 3.5508-7.8906 7.9297-10.5 12.879l-15.891-22.051v0.003907c2.1367 0.30469 4.2852 0.46484 6.4414 0.48828 12.066 0 23.641-4.793 32.172-13.328 8.5352-8.5312 13.328-20.105 13.328-32.172s-4.793-23.641-13.328-32.172c-8.5312-8.5352-20.105-13.328-32.172-13.328s-23.641 4.793-32.172 13.328c-8.5352 8.5312-13.328 20.105-13.328 32.172v1.2617c-7.9648-3.7969-16.805-5.3711-25.59-4.5547-8.7852 0.8125-17.188 3.9805-24.32 9.1719-10.508 7.6484-17.547 19.16-19.57 32-2.0234 12.836 1.1406 25.953 8.7891 36.461l112 154c9.2383 12.688 23.996 20.184 39.691 20.16h131.6l76.367 88.059c11.297 12.641 28.32 18.547 45.016 15.617 16.695-2.9336 30.691-14.285 37.004-30.02 6.3086-15.73 4.043-33.609-6-47.266 0.82812-0.53906 1.6211-1.1211 2.3828-1.75 5.6016-4.8672 9.0469-11.758 9.5703-19.16 0.52344-7.4023-1.9102-14.711-6.7695-20.32l-1.3281-1.3984c13.508-41.441 13.156-46.762 13.156-49.352zm-317.66-117.88c4.9453-4.1406 11.191-6.3984 17.641-6.3711 1.2109-0.10547 2.4297-0.10547 3.6406 0 7.6484 0.96484 14.562 5.043 19.109 11.27l30.801 42.422c1.3203 1.8086 3.4297 2.875 5.668 2.8672h76.441c13.617 0.046875 26.633 5.6289 36.051 15.473l105.98 112c2.3828 2.7695 3.5859 6.3594 3.3594 10.008-0.21875 3.7852-1.9609 7.3242-4.832 9.8008-2.8398 2.3438-6.4727 3.5078-10.148 3.2461-3.6758-0.25781-7.1094-1.9219-9.5898-4.6445l-73.992-85.332-0.48828-0.83984c-0.88672-1.1875-2.1055-2.0898-3.5-2.5898-1.4414-0.51562-2.9531-0.79688-4.4805-0.83984h-132.58c-8.9766 0.007812-17.41-4.2891-22.684-11.551l-41.301-56.84h0.003906c-4.1914-5.7773-6.0156-12.934-5.1055-20.012 0.91016-7.0781 4.4883-13.539 10.004-18.066zm-28.84-96.531c8.3555 0 16.367 3.3203 22.273 9.2266s9.2266 13.918 9.2266 22.273-3.3203 16.367-9.2266 22.273-13.918 9.2266-22.273 9.2266-16.367-3.3203-22.273-9.2266-9.2266-13.918-9.2266-22.273c0.019531-8.3477 3.3438-16.352 9.2461-22.254s13.906-9.2266 22.254-9.2461zm316.96 313.11c6.375 6.9766 9.6562 16.23 9.1055 25.664-0.55469 9.4297-4.8945 18.238-12.043 24.422-7.1445 6.1797-16.484 9.2109-25.898 8.3984-9.4141-0.80859-18.102-5.3906-24.086-12.703l-78.539-90.441c-1.3281-1.5547-3.2734-2.4492-5.3203-2.4492h-134.68c-11.09-0.097656-21.48-5.4492-28-14.422l-112-154c-6.8477-7.2969-10.246-17.184-9.3281-27.152s6.0586-19.066 14.125-24.996c8.0664-5.9258 18.285-8.1172 28.074-6.0195 9.7852 2.1016 18.207 8.293 23.129 17.012l43.051 59.641v-0.003906c-0.59375 9.5664 2.1523 19.043 7.7695 26.812l41.301 56.84c7.9727 10.961 20.746 17.398 34.301 17.289h131.04l73.43 84.699c5.2812 6.0938 12.934 9.6172 21 9.6602h1.8906zm-41.441-110.11-5.4609-88.34c-0.070313-1.0078-0.35547-1.9844-0.83984-2.8711l-29.957-55.789c-1.0234-1.8711-2.8398-3.1719-4.9375-3.5391-2.0977-0.36719-4.25 0.23828-5.8438 1.6484l-31.289 28c-2.3711 2.1289-5.8828 2.3906-8.543 0.62891l-83.367-55.438c-3.2031-2.0039-4.4805-6.0391-3.0117-9.5195 0.93359-1.793 2.5898-3.0938 4.5508-3.5703 1.8984-0.46094 3.9023-0.10547 5.5312 0.98047l74.969 49.98c2.6289 1.7383 6.0938 1.5117 8.4688-0.5625l60.969-52.43h0.003907c3.5156-2.9961 8.1836-4.2773 12.738-3.5 4.5391 0.79687 8.4766 3.6016 10.711 7.6289 16.379 29.328 42 75.391 42 75.391 1.9453 3.5547 3.0703 7.5039 3.2891 11.551l7 112c0 1.2617-0.69922 7.6289-10.219 36.75z"/>
 </g>
</svg>
