<?xml version="1.0" encoding="UTF-8"?>
<svg width="100pt" height="100pt" version="1.1" viewBox="100 80 510 400" fill='white' xmlns="http://www.w3.org/2000/svg" xmlns:xlink="http://www.w3.org/1999/xlink" >
 <g>
  <path d="m405.42 362.6h-27.977v-27.977c0-3.0938-2.5078-5.6016-5.6016-5.6016h-43.836c-3.0938 0-5.6016 2.5078-5.6016 5.6016l0.003906 27.977h-27.977c-3.0938 0-5.6016 2.5078-5.6016 5.6016v43.836c0 3.0938 2.5078 5.6016 5.6016 5.6016h27.977v27.977c0 3.0938 2.5078 5.6016 5.6016 5.6016h43.836c3.0938 0 5.6016-2.5078 5.6016-5.6016v-27.977h27.977c3.0938 0 5.6016-2.5078 5.6016-5.6016l-0.003907-43.84c0-3.0938-2.5078-5.5977-5.6016-5.5977zm-5.6016 43.832h-27.977c-3.0938 0-5.6016 2.5078-5.6016 5.6016v27.977h-32.637v-27.977c0-3.0938-2.5078-5.6016-5.6016-5.6016h-27.977l0.003906-32.633h27.977c3.0938 0 5.6016-2.5078 5.6016-5.6016v-27.977h32.637v27.977c0 3.0938 2.5078 5.6016 5.6016 5.6016h27.977z"/>
  <path d="m199.55 504h301.13c3.0938 0 5.6016-2.5078 5.6016-5.6016v-116.33c0-66.086-48.637-119.85-108.42-119.85h-1.668v-17.488c42.734-0.035156 63.762-17.672 64.668-18.453 1.5039-1.293 2.2109-3.2852 1.8633-5.2383-0.35156-1.9492-1.7109-3.5703-3.5664-4.2617-18.652-6.9023-26.969-35.34-27.301-36.508 5.0234-11.031 7.8867-23.227 7.8867-36.09 0-48.617-39.949-88.168-89.055-88.168-49.105 0-89.059 39.555-89.059 88.168 0 12.25 2.5469 23.922 7.1289 34.531-0.28906 0.46094-0.58984 0.91797-0.73828 1.4727-0.082032 0.29297-8.3008 29.555-27.332 36.594-1.8594 0.6875-3.2148 2.3125-3.5664 4.2617-0.35156 1.9492 0.35938 3.9414 1.8633 5.2383 0.90625 0.78125 21.969 18.457 64.785 18.457 0.23828 0 0.49219-0.011719 0.73437-0.011719v17.5h-2.1641c-59.766 0-108.39 53.746-108.39 119.81l-0.003906 116.37c0 3.0938 2.5078 5.6016 5.5977 5.6016zm73.516-355.19c0.81641 0.46094 1.7148 0.78906 2.6914 0.78906 0.30078 0 0.60938-0.023437 0.91797-0.074218 38.969-6.4453 55.852-29.484 59.242-34.738 32.125 17.805 60.77 21.203 77.652 21.203 7.0234 0 12.008-0.57422 14.371-0.91797 0.35938 2.9922 0.59375 6.0156 0.59375 9.1016 0 42.441-34.926 76.969-77.855 76.969-41.34 0-75.164-32.055-77.613-72.332zm42.637 76.422c10.746 4.5625 22.57 7.1094 34.988 7.1094 12.156 0 23.738-2.4375 34.305-6.8203v39.121l-1.5547 0.93359c-20.543 12.34-46.023 12.273-66.508-0.16797l-1.2305-0.74609zm130.54-2.793c-8.6836 4.625-25.289 10.961-50.043 11v-13.23c0-0.12109-0.0625-0.22266-0.070312-0.34375 11.379-6.7227 21.168-15.809 28.539-26.672 3.7734 8.8438 10.668 21.457 21.574 29.246zm-20.484-98.391c-9.8555 1.2188-64.027 5.1523-118.71-43.578 12.457-8.3711 27.484-13.27 43.648-13.27 35.875 0 66.082 24.152 75.062 56.848zm-127.62-36.5c9.4805 8.6016 18.918 15.645 28.156 21.512-2.9492 4.4609-17.504 23.797-51.434 29.41-0.64844 0.10547-1.2227 0.37109-1.7656 0.67188 1.3438-20.379 10.711-38.578 25.043-51.594zm-44.477 134.86c11.52-8.2461 18.543-21.852 22.148-30.703 7.3477 11.305 17.227 20.805 28.844 27.793-0.03125 0.24219-0.14453 0.45703-0.14453 0.70703v13.227c-25.043 0.085937-42-6.3438-50.848-11.023zm-48.5 159.61c0-67.09 50.445-108.61 97.188-108.61h6.1953l2.5859 1.5664c12.082 7.3398 25.645 11.008 39.207 11.008 13.438 0 26.875-3.6016 38.879-10.809l2.9414-1.7656h5.7148c46.754 0 97.219 41.539 97.219 108.65v110.74h-289.93z"/>
 </g>
</svg>
