<?xml version="1.0" encoding="UTF-8"?>
<svg width="110pt" height="100pt" version="1.1" viewBox="100 50 500 460" fill='white' xmlns="http://www.w3.org/2000/svg" xmlns:xlink="http://www.w3.org/1999/xlink">
 <g>
  <path d="m162.21 351.31c-11.074 0-21.527-4.2305-29.246-11.699-7.7148-7.3438-11.945-17.172-11.945-27.625s4.2305-20.285 11.945-27.625c7.8398-7.4648 18.168-11.574 29.246-11.574 4.1055 0 7.3438 3.2344 7.4648 7.3438 0 4.1055-3.2344 7.4648-7.3438 7.4648-7.2188 0-14.062 2.7383-19.039 7.4648-4.7305 4.6055-7.3438 10.578-7.3438 16.926s2.6133 12.32 7.3438 16.926c4.9766 4.8516 11.82 7.4648 19.039 7.4648 4.1055 0 7.3438 3.3594 7.3438 7.4648-0.125 4.2305-3.4844 7.4688-7.4648 7.4688z" fill-rule="evenodd"/>
  <path d="m538.54 351.31c-4.1055 0-7.3438-3.2344-7.4648-7.3438 0-4.1055 3.2344-7.4648 7.3438-7.4648 7.2188 0 14.062-2.7383 19.039-7.4648 4.7305-4.6055 7.3438-10.578 7.3438-16.926s-2.6133-12.32-7.3438-16.926c-4.9766-4.8516-11.82-7.4648-19.039-7.4648-4.1055 0-7.3438-3.3594-7.3438-7.4648 0-4.1055 3.3594-7.3438 7.4648-7.3438 11.074 0 21.406 4.2305 29.246 11.574 7.7148 7.3438 11.945 17.172 11.945 27.625s-4.2305 20.285-11.945 27.625c-7.8438 7.3398-18.172 11.574-29.246 11.574z" fill-rule="evenodd"/>
  <path d="m355.35 198.74c-23.52 0-47.539-8.0898-68.57-23.148-25.012-17.922-42.062-43.68-44.801-67.074-0.49609-4.1055 2.4883-7.7148 6.5938-8.2148 4.1055-0.49609 7.7148 2.4883 8.2148 6.5938 2.1172 19.164 17.297 41.316 38.703 56.746 20.781 14.934 44.676 22.027 67.449 20.035 4.1055-0.375 7.7148 2.6133 8.0898 6.7188s-2.6133 7.7148-6.7188 8.0898c-2.9883 0.12891-5.9766 0.25391-8.9609 0.25391z" fill-rule="evenodd"/>
  <path d="m344.03 157.05c-0.74609 0-1.6172-0.125-2.3633-0.375-18.168-5.9727-31.859-18.168-40.816-36.09-5.9727-12.07-9.832-26.258-11.82-44.926-0.49609-4.1055 2.4883-7.7148 6.5938-8.2148 4.1055-0.49609 7.7148 2.4883 8.2148 6.5938 1.8672 16.926 5.2266 29.617 10.453 39.945 7.2188 14.438 17.797 23.895 32.23 28.621 3.8594 1.2461 5.9727 5.4766 4.7305 9.332-1.125 3.2461-4.1133 5.1133-7.2227 5.1133z" fill-rule="evenodd"/>
  <path d="m393.68 164.52c-0.74609 0-1.6172-0.125-2.3633-0.375-8.5859-2.8633-15.68-7.4648-21.281-13.812-4.8516-5.4766-8.5859-12.195-11.324-20.41-4.7305-14.312-5.3516-30.613-5.9727-44.926-0.25-5.7227-0.49609-11.074-0.99609-15.805-0.49609-4.1055 2.4883-7.7148 6.5938-8.2148 4.1055-0.49609 7.7148 2.4883 8.2148 6.5938 0.62109 5.2266 0.87109 10.828 1.1211 16.801 0.62109 13.441 1.2461 28.621 5.2266 40.941 4.3555 13.066 11.699 21.031 23.148 24.766 3.8594 1.2461 5.9727 5.4766 4.7305 9.332-1 3.1172-3.9844 5.1094-7.0977 5.1094z" fill-rule="evenodd"/>
  <path d="m403.76 287.59c-1.8672 0-3.7344-0.74609-5.2266-2.1172-2.8633-2.8633-2.8633-7.5898 0-10.453 16.055-16.055 42.312-16.055 58.363 0l-10.453 10.453c-10.328-10.328-27.129-10.328-37.457 0-1.4961 1.3711-3.3633 2.1172-5.2266 2.1172z" fill-rule="evenodd"/>
  <path d="m248.95 287.59c-1.8672 0-3.7344-0.74609-5.2266-2.1172-2.8633-2.8633-2.8633-7.5898 0-10.453 16.055-16.055 42.312-16.055 58.363 0l-10.453 10.453c-10.328-10.328-27.129-10.328-37.457 0-1.3672 1.3711-3.2344 2.1172-5.2266 2.1172z" fill-rule="evenodd"/>
  <path d="m350.38 417.26c-26.008 0-50.648-6.0977-69.316-17.297-9.457-5.6016-16.801-12.195-22.152-19.664-5.7227-8.0898-8.5859-16.801-8.5859-25.883v-1.4922c0.25-5.8477 3.6094-10.949 9.582-14.559 9.707-5.8477 24.266-6.2227 34.719-1.1211 15.555 7.7148 35.344 11.945 55.75 11.945 20.41 0 40.195-4.2305 55.75-11.945 10.453-5.1016 25.012-4.7305 34.719 1.1211 5.9727 3.6094 9.332 8.7109 9.582 14.559v0.87109c0.25 11.945-4.9766 23.645-14.809 33.723-8.8359 8.9609-21.406 16.551-36.09 21.777-15.051 5.1016-31.977 7.9648-49.148 7.9648zm-71.93-68.816c-4.2305 0-8.3359 0.99609-10.949 2.6133-1.7422 0.99609-2.3633 1.9922-2.3633 2.3633v0.99609c0 12.07 8.3359 23.77 23.52 32.852 16.301 9.832 38.328 15.184 61.723 15.184 30.613 0 59.234-9.707 74.668-25.387 4.9766-4.9766 10.828-13.066 10.578-23.148v-0.49609c0-0.375-0.62109-1.3672-2.3633-2.3633-4.7305-2.8633-13.938-3.8594-20.535-0.62109-17.547 8.7109-39.699 13.441-62.223 13.441-22.648 0-44.676-4.7305-62.223-13.441-3.1133-1.3711-6.4727-1.9922-9.832-1.9922z" fill-rule="evenodd"/>
  <path d="m350.38 388.14c-4.4805 0-8.8359-1.7422-12.07-4.8516-3.4844-3.2344-5.3516-7.8398-5.3516-12.57v-14.438c0-4.1055 3.3594-7.4648 7.4648-7.4648s7.4648 3.3594 7.4648 7.4648v14.438c0 0.99609 0.49609 1.6172 0.74609 1.8672s0.99609 0.74609 1.9922 0.74609c0.87109 0 1.4922-0.49609 1.7422-0.74609 0.375-0.375 0.74609-0.99609 0.74609-1.8672v-14.438c0-4.1055 3.3594-7.4648 7.4648-7.4648s7.4648 3.3594 7.4648 7.4648v14.438c0 4.4805-1.7422 8.8359-4.8516 12.07-3.1094 3.2344-7.3438 5.2266-11.82 5.3516h-0.99219z" fill-rule="evenodd"/>
  <path d="m350.38 501.01c-26.754 0-52.641-4.9766-77.156-14.809-23.645-9.457-44.801-23.148-63.094-40.445-18.293-17.297-32.605-37.578-42.684-59.98-10.328-23.395-15.68-48.16-15.68-73.672s5.2266-50.398 15.68-73.672c10.078-22.523 24.391-42.684 42.559-60.105 18.168-17.297 39.449-30.863 63.094-40.445 24.391-9.832 50.398-14.809 77.156-14.809 26.754 0 52.766 4.9766 77.156 14.809 23.645 9.457 44.801 23.148 63.094 40.445s32.605 37.582 42.559 60.105c10.328 23.395 15.68 48.16 15.68 73.672s-5.2266 50.398-15.68 73.672c-10.078 22.523-24.391 42.684-42.559 60.105-18.168 17.297-39.449 30.863-63.094 40.445-24.395 9.707-50.277 14.684-77.031 14.684zm0-363.13c-101.3 0-183.68 78.152-183.68 174.1 0 95.945 82.383 174.1 183.68 174.1s183.68-78.152 183.68-174.1c0-95.945-82.508-174.1-183.68-174.1z" fill-rule="evenodd"/>
  <use x="70" y="578.667969" xlink:href="#s"/>
  <use x="74.566406" y="578.667969" xlink:href="#e"/>
  <use x="77.636719" y="578.667969" xlink:href="#a"/>
  <use x="81.855469" y="578.667969" xlink:href="#l"/>
  <use x="86.054688" y="578.667969" xlink:href="#d"/>
  <use x="89.027344" y="578.667969" xlink:href="#a"/>
  <use x="93.25" y="578.667969" xlink:href="#k"/>
  <use x="99.867188" y="578.667969" xlink:href="#g"/>
  <use x="104.324219" y="578.667969" xlink:href="#f"/>
  <use x="110.542969" y="578.667969" xlink:href="#j"/>
  <use x="112.859375" y="578.667969" xlink:href="#i"/>
  <use x="116.546875" y="578.667969" xlink:href="#c"/>
  <use x="120.824219" y="578.667969" xlink:href="#b"/>
  <use x="125.253906" y="578.667969" xlink:href="#g"/>
  <use x="129.707031" y="578.667969" xlink:href="#h"/>
  <use x="134.136719" y="578.667969" xlink:href="#b"/>
  <use x="138.566406" y="578.667969" xlink:href="#b"/>
  <use x="142.996094" y="578.667969" xlink:href="#f"/>
  <use x="70" y="584.890625" xlink:href="#r"/>
  <use x="72.707031" y="584.890625" xlink:href="#e"/>
  <use x="75.777344" y="584.890625" xlink:href="#c"/>
  <use x="80.050781" y="584.890625" xlink:href="#q"/>
  <use x="88.699219" y="584.890625" xlink:href="#d"/>
  <use x="91.675781" y="584.890625" xlink:href="#p"/>
  <use x="96.105469" y="584.890625" xlink:href="#a"/>
  <use x="102.492188" y="584.890625" xlink:href="#o"/>
  <use x="107.699219" y="584.890625" xlink:href="#c"/>
  <use x="111.972656" y="584.890625" xlink:href="#h"/>
  <use x="116.402344" y="584.890625" xlink:href="#b"/>
  <use x="123" y="584.890625" xlink:href="#n"/>
  <use x="127.558594" y="584.890625" xlink:href="#e"/>
  <use x="130.628906" y="584.890625" xlink:href="#c"/>
  <use x="134.902344" y="584.890625" xlink:href="#m"/>
  <use x="137.035156" y="584.890625" xlink:href="#a"/>
  <use x="141.253906" y="584.890625" xlink:href="#i"/>
  <use x="144.941406" y="584.890625" xlink:href="#d"/>
 </g>
</svg>
