<?xml version="1.0" encoding="UTF-8"?>
<svg width="100pt" height="100pt" version="1.1" viewBox="100 80 510 400" fill='white' xmlns="http://www.w3.org/2000/svg" xmlns:xlink="http://www.w3.org/1999/xlink">
 <g>
  <path d="m527.51 277.85-0.30859-5.6406-5.6523-0.31641s-2.1836-0.125-6.0469-0.125c-0.13672 0-0.33203 0.007813-0.46875 0.007813-19.84 0.046874-85.391 3.5117-126.61 44.727-17.387 17.387-28.07 38.902-34.609 59.531 2.2578-19.75 6.7695-40.609 14.438-59.129 5.0195-12.121 12.188-22.863 20.371-32.285-1.7539-4.3477-3.6758-8.5703-5.7383-12.629-10.535 11.324-19.902 24.625-26.305 40.078-2.9219 7.0586-5.0898 14.238-6.6406 21.43-1.5508-7.1914-3.7148-14.371-6.6367-21.43-6.3906-15.414-15.719-28.688-26.23-39.992-2.0586 4.0586-3.9844 8.2891-5.7344 12.645 8.1562 9.3984 15.285 20.102 20.297 32.184 7.5898 18.328 12.082 38.949 14.363 58.52-6.5586-20.445-17.195-41.707-34.41-58.922-41.223-41.215-106.79-44.684-126.61-44.727-0.14844 0-0.33203-0.007813-0.46875-0.007813-3.875 0-6.0586 0.125-6.0586 0.125l-5.6523 0.31641-0.30859 5.6406c-0.035157 0.74609-0.25781 5.168-0.0625 12.129 4.3828 78.816 60.297 144.09 134.54 162.61 7.375 1.8398 14.926 3.2188 22.625 4.1133l1.5352 0.53906 0.16797-0.34766c6.1523 0.65234 12.398 0.99219 18.723 0.99219 6.2812 0 12.488-0.33594 18.605-0.98047l0.16016 0.33594 1.4727-0.51953c7.7578-0.89062 15.367-2.2812 22.797-4.1328 74.238-18.52 130.16-83.789 134.55-162.61 0.18359-6.9609-0.027344-11.383-0.078126-12.129zm-342.32 13.559c-0.097656-2.6758-0.16016-5.1055-0.17188-7.0078 18.715 0.058593 79.898 3.3125 117.63 41.031 32.582 32.59 39.426 82.984 40.73 108.13-16.887-18.762-47.555-59.16-47.555-105.14 0-0.21875 0.039062-0.42969 0.039062-0.64844-3.8359-3.5938-7.8828-6.8672-12.117-9.8008-0.29688 3.4531-0.55469 6.918-0.55469 10.449 0 52.957 35.516 97.449 53.074 116.21-3.1367-0.25781-6.2461-0.59766-9.332-1.0234-33.543-13.496-78.082-43.406-95.418-85.246-8.6992-21.004-9.9453-43.559-7.9805-63.898-4.418-0.82813-8.6484-1.4766-12.645-1.9805-2.1953 22.195-0.8125 47.121 8.957 70.715 10.891 26.297 30.328 46.402 49.613 61.031-47.348-26.555-80.352-75.746-84.27-132.82zm329.64-0.31641c-3.8242 57.41-37.086 106.88-84.789 133.42 19.406-14.648 39.023-34.848 49.98-61.312 9.7695-23.586 11.152-48.512 8.957-70.703-3.9844 0.50781-8.2148 1.1641-12.648 1.9922 1.9609 20.328 0.71484 42.879-7.9844 63.871-17.332 41.863-61.918 71.781-95.461 85.27-3.0273 0.41797-6.0859 0.75-9.1641 1.0039 17.559-18.762 53.074-63.254 53.074-116.21 0-3.5312-0.24609-6.9961-0.55469-10.449-4.2305 2.9375-8.2773 6.207-12.102 9.8008 0 0.21875 0.023437 0.42969 0.023437 0.64844 0 45.996-30.672 86.402-47.555 105.16 1.3047-25.141 8.1445-75.551 40.742-108.14 37.73-37.723 98.926-40.977 117.63-41.031 0.011719 1.8242-0.050781 4.1445-0.14844 6.6875zm-336.73-25.512-5.3672 0.30078c7.2305-91.5 83.949-163.76 177.27-163.76 93.324 0 170.03 72.262 177.26 163.76l-5.3555-0.30078s-2.2109-0.125-6.5742-0.125h-0.30859c-0.13672 0-0.32031 0.007813-0.45703 0.007813-7.3906-84.328-78.348-150.7-164.57-150.7s-157.17 66.375-164.56 150.7c-0.29688-0.003907-0.66797-0.011719-0.9375-0.011719-4.0977 0-6.418 0.12891-6.4062 0.12891zm294.22 4.0078c4.3789-0.8125 8.6367-1.5078 12.637-2.0312-5.5664-25.141-13.953-42.941-14.672-44.434l-2.4414-5.0977-5.3438 1.875c-1.9844 0.69531-31.66 11.371-60.332 34.289 2.0625 3.7422 4.0586 7.6172 5.9492 11.633 20.977-17.207 43.121-27.629 53.113-31.836 2.7891 6.8164 7.5 19.645 11.09 35.602zm-234.95-49.688-5.332-1.875-2.4531 5.0977c-0.71484 1.4883-9.0938 19.293-14.672 44.434 4.0078 0.52344 8.2656 1.2188 12.645 2.0234 3.5781-15.957 8.2891-28.781 11.078-35.594 10.02 4.2148 32.199 14.66 53.199 31.91 1.8867-4.0195 3.8867-7.8984 5.9609-11.641-28.695-22.961-58.43-33.656-60.426-34.355zm112.63-3.6602c10.797 10.93 39.32 42.656 50.02 82.289 3.6406-2.6055 7.3672-5.0234 11.164-7.2383-14.969-50.414-54.902-86.699-56.977-88.555l-4.207-3.7734-4.2188 3.7734c-2.0742 1.8555-42 38.145-56.977 88.559 3.8008 2.2109 7.5391 4.6289 11.18 7.2344 10.695-39.633 39.207-71.363 50.016-82.289z"/>
 </g>
</svg>
