<?xml version="1.0" encoding="UTF-8"?>
<svg width="100pt" height="100pt" version="1.1" viewBox="100 80 510 420"  xmlns="http://www.w3.org/2000/svg" xmlns:xlink="http://www.w3.org/1999/xlink">
 <defs>
  <symbol id="v" overflow="visible">
   <path d="m18.766-1.125c-0.96875 0.5-1.9805 0.875-3.0312 1.125-1.043 0.25781-2.1367 0.39062-3.2812 0.39062-3.3984 0-6.0898-0.94531-8.0781-2.8438-1.9922-1.9062-2.9844-4.4844-2.9844-7.7344 0-3.2578 0.99219-5.8359 2.9844-7.7344 1.9883-1.9062 4.6797-2.8594 8.0781-2.8594 1.1445 0 2.2383 0.13281 3.2812 0.39062 1.0508 0.25 2.0625 0.625 3.0312 1.125v4.2188c-0.98047-0.65625-1.9453-1.1406-2.8906-1.4531-0.94922-0.3125-1.9492-0.46875-3-0.46875-1.875 0-3.3516 0.60547-4.4219 1.8125-1.0742 1.1992-1.6094 2.8555-1.6094 4.9688 0 2.1055 0.53516 3.7617 1.6094 4.9688 1.0703 1.1992 2.5469 1.7969 4.4219 1.7969 1.0508 0 2.0508-0.14844 3-0.45312 0.94531-0.3125 1.9102-0.80078 2.8906-1.4688z"/>
  </symbol>
  <symbol id="e" overflow="visible">
   <path d="m13.734-11.141c-0.4375-0.19531-0.87109-0.34375-1.2969-0.4375-0.41797-0.10156-0.83984-0.15625-1.2656-0.15625-1.2617 0-2.2305 0.40625-2.9062 1.2188-0.67969 0.80469-1.0156 1.9531-1.0156 3.4531v7.0625h-4.8906v-15.312h4.8906v2.5156c0.625-1 1.3438-1.7266 2.1562-2.1875 0.82031-0.46875 1.8008-0.70312 2.9375-0.70312 0.16406 0 0.34375 0.011719 0.53125 0.03125 0.19531 0.011719 0.47656 0.039062 0.84375 0.078125z"/>
  </symbol>
  <symbol id="a" overflow="visible">
   <path d="m17.641-7.7031v1.4062h-11.453c0.125 1.1484 0.53906 2.0078 1.25 2.5781 0.70703 0.57422 1.7031 0.85938 2.9844 0.85938 1.0312 0 2.082-0.14844 3.1562-0.45312 1.082-0.3125 2.1914-0.77344 3.3281-1.3906v3.7656c-1.1562 0.4375-2.3125 0.76562-3.4688 0.98438-1.1562 0.22656-2.3125 0.34375-3.4688 0.34375-2.7734 0-4.9297-0.70312-6.4688-2.1094-1.5312-1.4062-2.2969-3.3789-2.2969-5.9219 0-2.5 0.75391-4.4609 2.2656-5.8906 1.5078-1.4375 3.582-2.1562 6.2188-2.1562 2.4062 0 4.332 0.73047 5.7812 2.1875 1.4453 1.4492 2.1719 3.3828 2.1719 5.7969zm-5.0312-1.625c0-0.92578-0.27344-1.6719-0.8125-2.2344-0.54297-0.57031-1.25-0.85938-2.125-0.85938-0.94922 0-1.7188 0.26562-2.3125 0.79688s-0.96484 1.2969-1.1094 2.2969z"/>
  </symbol>
  <symbol id="d" overflow="visible">
   <path d="m9.2188-6.8906c-1.0234 0-1.793 0.17188-2.3125 0.51562-0.51172 0.34375-0.76562 0.85547-0.76562 1.5312 0 0.625 0.20703 1.1172 0.625 1.4688 0.41406 0.34375 0.98828 0.51562 1.7188 0.51562 0.92578 0 1.7031-0.32812 2.3281-0.98438 0.63281-0.66406 0.95312-1.4922 0.95312-2.4844v-0.5625zm7.4688-1.8438v8.7344h-4.9219v-2.2656c-0.65625 0.92969-1.3984 1.6055-2.2188 2.0312-0.82422 0.41406-1.8242 0.625-3 0.625-1.5859 0-2.8711-0.45703-3.8594-1.375-0.99219-0.92578-1.4844-2.1289-1.4844-3.6094 0-1.7891 0.61328-3.1016 1.8438-3.9375 1.2383-0.84375 3.1797-1.2656 5.8281-1.2656h2.8906v-0.39062c0-0.76953-0.30859-1.332-0.92188-1.6875-0.61719-0.36328-1.5703-0.54688-2.8594-0.54688-1.0547 0-2.0312 0.10547-2.9375 0.3125-0.89844 0.21094-1.7305 0.52344-2.5 0.9375v-3.7344c1.0391-0.25 2.0859-0.44141 3.1406-0.57812 1.0625-0.13281 2.125-0.20312 3.1875-0.20312 2.7578 0 4.75 0.54688 5.9688 1.6406 1.2266 1.0859 1.8438 2.8555 1.8438 5.3125z"/>
  </symbol>
  <symbol id="c" overflow="visible">
   <path d="m7.7031-19.656v4.3438h5.0469v3.5h-5.0469v6.5c0 0.71094 0.14062 1.1875 0.42188 1.4375s0.83594 0.375 1.6719 0.375h2.5156v3.5h-4.1875c-1.9375 0-3.3125-0.39844-4.125-1.2031-0.80469-0.8125-1.2031-2.1797-1.2031-4.1094v-6.5h-2.4219v-3.5h2.4219v-4.3438z"/>
  </symbol>
  <symbol id="k" overflow="visible">
   <path d="m12.766-13.078v-8.2031h4.9219v21.281h-4.9219v-2.2188c-0.66797 0.90625-1.4062 1.5703-2.2188 1.9844s-1.7578 0.625-2.8281 0.625c-1.8867 0-3.4336-0.75-4.6406-2.25-1.2109-1.5-1.8125-3.4258-1.8125-5.7812 0-2.3633 0.60156-4.2969 1.8125-5.7969 1.207-1.5 2.7539-2.25 4.6406-2.25 1.0625 0 2 0.21484 2.8125 0.64062 0.82031 0.42969 1.5664 1.0859 2.2344 1.9688zm-3.2188 9.9219c1.0391 0 1.8359-0.37891 2.3906-1.1406 0.55078-0.76953 0.82812-1.8828 0.82812-3.3438 0-1.457-0.27734-2.5664-0.82812-3.3281-0.55469-0.76953-1.3516-1.1562-2.3906-1.1562-1.043 0-1.8398 0.38672-2.3906 1.1562-0.55469 0.76172-0.82812 1.8711-0.82812 3.3281 0 1.4609 0.27344 2.5742 0.82812 3.3438 0.55078 0.76172 1.3477 1.1406 2.3906 1.1406z"/>
  </symbol>
  <symbol id="j" overflow="visible">
   <path d="m10.5-3.1562c1.0508 0 1.8516-0.37891 2.4062-1.1406 0.55078-0.76953 0.82812-1.8828 0.82812-3.3438 0-1.457-0.27734-2.5664-0.82812-3.3281-0.55469-0.76953-1.3555-1.1562-2.4062-1.1562-1.0547 0-1.8594 0.38672-2.4219 1.1562-0.55469 0.77344-0.82812 1.8828-0.82812 3.3281 0 1.4492 0.27344 2.5586 0.82812 3.3281 0.5625 0.77344 1.3672 1.1562 2.4219 1.1562zm-3.25-9.9219c0.67578-0.88281 1.4219-1.5391 2.2344-1.9688 0.82031-0.42578 1.7656-0.64062 2.8281-0.64062 1.8945 0 3.4453 0.75 4.6562 2.25 1.207 1.5 1.8125 3.4336 1.8125 5.7969 0 2.3555-0.60547 4.2812-1.8125 5.7812-1.2109 1.5-2.7617 2.25-4.6562 2.25-1.0625 0-2.0078-0.21094-2.8281-0.625-0.8125-0.42578-1.5586-1.0859-2.2344-1.9844v2.2188h-4.8906v-21.281h4.8906z"/>
  </symbol>
  <symbol id="b" overflow="visible">
   <path d="m0.34375-15.312h4.8906l4.125 10.391 3.5-10.391h4.8906l-6.4375 16.766c-0.64844 1.6953-1.4023 2.8828-2.2656 3.5625-0.86719 0.6875-2 1.0312-3.4062 1.0312h-2.8438v-3.2188h1.5312c0.83203 0 1.4375-0.13672 1.8125-0.40625 0.38281-0.26172 0.67969-0.73047 0.89062-1.4062l0.14062-0.42188z"/>
  </symbol>
  <symbol id="i" overflow="visible">
   <path d="m7.8281-16.438v12.453h1.8906c2.1562 0 3.8008-0.53125 4.9375-1.5938 1.1328-1.0625 1.7031-2.6133 1.7031-4.6562 0-2.0195-0.57031-3.5547-1.7031-4.6094-1.125-1.0625-2.7734-1.5938-4.9375-1.5938zm-5.25-3.9688h5.5469c3.0938 0 5.3984 0.21875 6.9219 0.65625 1.5195 0.4375 2.8203 1.1875 3.9062 2.25 0.95703 0.91797 1.6641 1.9805 2.125 3.1875 0.46875 1.1992 0.70312 2.5586 0.70312 4.0781 0 1.543-0.23438 2.918-0.70312 4.125-0.46094 1.2109-1.168 2.2773-2.125 3.2031-1.0938 1.0547-2.4062 1.8047-3.9375 2.25-1.5312 0.4375-3.8281 0.65625-6.8906 0.65625h-5.5469z"/>
  </symbol>
  <symbol id="h" overflow="visible">
   <path d="m2.3594-15.312h4.8906v15.312h-4.8906zm0-5.9688h4.8906v4h-4.8906z"/>
  </symbol>
  <symbol id="g" overflow="visible">
   <path d="m17.75-9.3281v9.3281h-4.9219v-7.1094c0-1.3438-0.03125-2.2656-0.09375-2.7656s-0.16797-0.86719-0.3125-1.1094c-0.1875-0.3125-0.44922-0.55469-0.78125-0.73438-0.32422-0.17578-0.69531-0.26562-1.1094-0.26562-1.0234 0-1.8242 0.39844-2.4062 1.1875-0.58594 0.78125-0.875 1.8711-0.875 3.2656v7.5312h-4.8906v-21.281h4.8906v8.2031c0.73828-0.88281 1.5195-1.5391 2.3438-1.9688 0.83203-0.42578 1.75-0.64062 2.75-0.64062 1.7695 0 3.1133 0.54688 4.0312 1.6406 0.91406 1.0859 1.375 2.6562 1.375 4.7188z"/>
  </symbol>
  <symbol id="u" overflow="visible">
   <path d="m14.953-3.7188h-8.2188l-1.3125 3.7188h-5.2812l7.5625-20.406h6.2656l7.5625 20.406h-5.2812zm-6.9062-3.7812h5.5781l-2.7812-8.125z"/>
  </symbol>
  <symbol id="t" overflow="visible">
   <path d="m14.312-14.828v3.7188c-1.043-0.4375-2.0547-0.76562-3.0312-0.98438-0.98047-0.21875-1.9023-0.32812-2.7656-0.32812-0.92969 0-1.6211 0.11719-2.0781 0.34375-0.44922 0.23047-0.67188 0.58984-0.67188 1.0781 0 0.38672 0.17188 0.68359 0.51562 0.89062 0.34375 0.21094 0.95703 0.36719 1.8438 0.46875l0.85938 0.125c2.5078 0.32422 4.1953 0.85156 5.0625 1.5781 0.86328 0.73047 1.2969 1.8711 1.2969 3.4219 0 1.6367-0.60547 2.8672-1.8125 3.6875-1.1992 0.8125-2.9922 1.2188-5.375 1.2188-1.0234 0-2.0742-0.078125-3.1562-0.23438-1.0742-0.15625-2.1797-0.39453-3.3125-0.71875v-3.7188c0.96875 0.48047 1.9609 0.83984 2.9844 1.0781 1.0312 0.23047 2.0781 0.34375 3.1406 0.34375 0.95703 0 1.6758-0.12891 2.1562-0.39062 0.47656-0.26953 0.71875-0.66406 0.71875-1.1875 0-0.4375-0.16797-0.75781-0.5-0.96875-0.33594-0.21875-0.99609-0.38281-1.9844-0.5l-0.85938-0.10938c-2.1797-0.26953-3.7031-0.77344-4.5781-1.5156-0.875-0.73828-1.3125-1.8594-1.3125-3.3594 0-1.625 0.55078-2.8281 1.6562-3.6094 1.1133-0.78906 2.8203-1.1875 5.125-1.1875 0.89453 0 1.8359 0.074219 2.8281 0.21875 1 0.13672 2.082 0.35156 3.25 0.64062z"/>
  </symbol>
  <symbol id="s" overflow="visible">
   <path d="m12.422-21.281v3.2188h-2.7031c-0.6875 0-1.1719 0.125-1.4531 0.375-0.27344 0.25-0.40625 0.6875-0.40625 1.3125v1.0625h4.1875v3.5h-4.1875v11.812h-4.8906v-11.812h-2.4375v-3.5h2.4375v-1.0625c0-1.6641 0.46094-2.8984 1.3906-3.7031 0.92578-0.80078 2.3672-1.2031 4.3281-1.2031z"/>
  </symbol>
  <symbol id="f" overflow="visible">
   <path d="m9.6406-12.188c-1.0859 0-1.9141 0.39062-2.4844 1.1719-0.57422 0.78125-0.85938 1.9062-0.85938 3.375s0.28516 2.5938 0.85938 3.375c0.57031 0.77344 1.3984 1.1562 2.4844 1.1562 1.0625 0 1.875-0.38281 2.4375-1.1562 0.57031-0.78125 0.85938-1.9062 0.85938-3.375s-0.28906-2.5938-0.85938-3.375c-0.5625-0.78125-1.375-1.1719-2.4375-1.1719zm0-3.5c2.6328 0 4.6914 0.71484 6.1719 2.1406 1.4766 1.418 2.2188 3.3867 2.2188 5.9062 0 2.5117-0.74219 4.4805-2.2188 5.9062-1.4805 1.418-3.5391 2.125-6.1719 2.125-2.6484 0-4.7148-0.70703-6.2031-2.125-1.4922-1.4258-2.2344-3.3945-2.2344-5.9062 0-2.5195 0.74219-4.4883 2.2344-5.9062 1.4883-1.4258 3.5547-2.1406 6.2031-2.1406z"/>
  </symbol>
  <symbol id="r" overflow="visible">
   <path d="m16.547-12.766c0.61328-0.94531 1.3477-1.6719 2.2031-2.1719 0.85156-0.5 1.7891-0.75 2.8125-0.75 1.7578 0 3.0977 0.54688 4.0156 1.6406 0.92578 1.0859 1.3906 2.6562 1.3906 4.7188v9.3281h-4.9219v-7.9844-0.35938c0.007813-0.13281 0.015625-0.32031 0.015625-0.5625 0-1.082-0.16406-1.8633-0.48438-2.3438-0.3125-0.48828-0.82422-0.73438-1.5312-0.73438-0.92969 0-1.6484 0.38672-2.1562 1.1562-0.51172 0.76172-0.77344 1.8672-0.78125 3.3125v7.5156h-4.9219v-7.9844c0-1.6953-0.14844-2.7852-0.4375-3.2656-0.29297-0.48828-0.8125-0.73438-1.5625-0.73438-0.9375 0-1.6641 0.38672-2.1719 1.1562-0.51172 0.76172-0.76562 1.8594-0.76562 3.2969v7.5312h-4.9219v-15.312h4.9219v2.2344c0.60156-0.86328 1.2891-1.5156 2.0625-1.9531 0.78125-0.4375 1.6406-0.65625 2.5781-0.65625 1.0625 0 2 0.25781 2.8125 0.76562 0.8125 0.51172 1.4258 1.2305 1.8438 2.1562z"/>
  </symbol>
  <symbol id="q" overflow="visible">
   <path d="m2.5781-20.406h5.875l7.4219 14v-14h4.9844v20.406h-5.875l-7.4219-14v14h-4.9844z"/>
  </symbol>
  <symbol id="p" overflow="visible">
   <path d="m2.1875-5.9688v-9.3438h4.9219v1.5312c0 0.83594-0.007813 1.875-0.015625 3.125-0.011719 1.25-0.015625 2.0859-0.015625 2.5 0 1.2422 0.03125 2.1328 0.09375 2.6719 0.070313 0.54297 0.17969 0.93359 0.32812 1.1719 0.20703 0.32422 0.47266 0.57422 0.79688 0.75 0.32031 0.16797 0.69141 0.25 1.1094 0.25 1.0195 0 1.8203-0.39062 2.4062-1.1719 0.58203-0.78125 0.875-1.8672 0.875-3.2656v-7.5625h4.8906v15.312h-4.8906v-2.2188c-0.74219 0.89844-1.5234 1.5586-2.3438 1.9844-0.82422 0.41406-1.7344 0.625-2.7344 0.625-1.7617 0-3.1055-0.53906-4.0312-1.625-0.92969-1.082-1.3906-2.6602-1.3906-4.7344z"/>
  </symbol>
  <symbol id="o" overflow="visible">
   <path d="m17.75-9.3281v9.3281h-4.9219v-7.1406c0-1.3203-0.03125-2.2344-0.09375-2.7344s-0.16797-0.86719-0.3125-1.1094c-0.1875-0.3125-0.44922-0.55469-0.78125-0.73438-0.32422-0.17578-0.69531-0.26562-1.1094-0.26562-1.0234 0-1.8242 0.39844-2.4062 1.1875-0.58594 0.78125-0.875 1.8711-0.875 3.2656v7.5312h-4.8906v-15.312h4.8906v2.2344c0.73828-0.88281 1.5195-1.5391 2.3438-1.9688 0.83203-0.42578 1.75-0.64062 2.75-0.64062 1.7695 0 3.1133 0.54688 4.0312 1.6406 0.91406 1.0859 1.375 2.6562 1.375 4.7188z"/>
  </symbol>
  <symbol id="n" overflow="visible">
   <path d="m2.5781-20.406h8.7344c2.5938 0 4.582 0.57812 5.9688 1.7344 1.3945 1.1484 2.0938 2.7891 2.0938 4.9219 0 2.1367-0.69922 3.7812-2.0938 4.9375-1.3867 1.1562-3.375 1.7344-5.9688 1.7344h-3.4844v7.0781h-5.25zm5.25 3.8125v5.7031h2.9219c1.0195 0 1.8047-0.25 2.3594-0.75 0.5625-0.5 0.84375-1.2031 0.84375-2.1094 0-0.91406-0.28125-1.6172-0.84375-2.1094-0.55469-0.48828-1.3398-0.73438-2.3594-0.73438z"/>
  </symbol>
  <symbol id="m" overflow="visible">
   <path d="m2.3594-15.312h4.8906v15.031c0 2.0508-0.49609 3.6172-1.4844 4.7031-0.98047 1.082-2.4062 1.625-4.2812 1.625h-2.4219v-3.2188h0.85938c0.92578 0 1.5625-0.21094 1.9062-0.625 0.35156-0.41797 0.53125-1.2461 0.53125-2.4844zm0-5.9688h4.8906v4h-4.8906z"/>
  </symbol>
  <symbol id="l" overflow="visible">
   <path d="m14.719-14.828v3.9844c-0.65625-0.45703-1.3242-0.79688-2-1.0156-0.66797-0.21875-1.3594-0.32812-2.0781-0.32812-1.3672 0-2.4336 0.40234-3.2031 1.2031-0.76172 0.79297-1.1406 1.9062-1.1406 3.3438 0 1.4297 0.37891 2.543 1.1406 3.3438 0.76953 0.79297 1.8359 1.1875 3.2031 1.1875 0.75781 0 1.4844-0.10938 2.1719-0.32812 0.6875-0.22656 1.3203-0.56641 1.9062-1.0156v4c-0.76172 0.28125-1.5391 0.48828-2.3281 0.625-0.78125 0.14453-1.5742 0.21875-2.375 0.21875-2.7617 0-4.9219-0.70703-6.4844-2.125-1.5547-1.4141-2.3281-3.3828-2.3281-5.9062 0-2.5312 0.77344-4.5039 2.3281-5.9219 1.5625-1.4141 3.7227-2.125 6.4844-2.125 0.80078 0 1.5938 0.074219 2.375 0.21875 0.78125 0.13672 1.5547 0.35156 2.3281 0.64062z"/>
  </symbol>
 </defs>
 <g>
  <path d="m328.21 454.16h-157.41c-4.957-0.24609-9.6172-2.4492-12.953-6.1211-3.3398-3.6758-5.0859-8.5195-4.8555-13.48v-294.89c-0.21484-4.9492 1.5391-9.7812 4.875-13.441 3.3359-3.6641 7.9844-5.8555 12.934-6.1016h54.098l-0.003907 6.4375c0 5.2461 2.0859 10.273 5.793 13.98 3.707 3.707 8.7344 5.7891 13.977 5.7891h105.34c5.2422 0 10.27-2.082 13.977-5.7891 3.707-3.707 5.793-8.7344 5.793-13.98v-6.4375h54.152c4.957 0.24609 9.6133 2.4453 12.949 6.1211 3.3398 3.6719 5.0859 8.5195 4.8555 13.477v75.152c0 3.6641 2.9727 6.6367 6.6367 6.6367 3.6641 0 6.6367-2.9727 6.6367-6.6367v-75.207c0.22656-8.4766-2.918-16.699-8.7461-22.859-5.8242-6.1641-13.855-9.7617-22.332-10.012h-54.379v-6.4414c0-5.2031-2.0508-10.199-5.7109-13.898-3.6562-3.7031-8.6289-5.8086-13.832-5.8672h-27.16c-1.9883-7.5508-7.2227-13.828-14.293-17.137-7.0703-3.3086-15.246-3.3086-22.316 0-7.0703 3.3086-12.305 9.5859-14.293 17.137h-26.992c-5.2422 0-10.273 2.082-13.98 5.7891-3.707 3.707-5.7891 8.7344-5.7891 13.977v6.4961h-54.375c-8.4766 0.25-16.508 3.8516-22.336 10.012-5.8242 6.1641-8.9727 14.383-8.7461 22.859v294.84c-0.22656 8.4805 2.9219 16.699 8.7461 22.863 5.8281 6.1602 13.859 9.7617 22.336 10.012h157.41c1.8672 0.17188 3.7188-0.45312 5.1016-1.7148 1.3867-1.2617 2.1758-3.0508 2.1758-4.9219 0-1.875-0.78906-3.6602-2.1758-4.9258-1.3828-1.2617-3.2344-1.8828-5.1016-1.7109zm-89.602-353.75h0.003907c0-3.5859 2.9062-6.4961 6.4961-6.4961h32.762-0.003906c1.7617 0 3.4531-0.70312 4.6953-1.9531 1.2383-1.25 1.9297-2.9453 1.9141-4.7109 0.44922-6.8594 6.1445-12.191 13.02-12.191s12.57 5.332 13.02 12.191c0 3.6836 2.9844 6.6641 6.6641 6.6641h32.816c3.5859 0 6.4961 2.9102 6.4961 6.4961v26.152c0 3.5898-2.9102 6.4961-6.4961 6.4961h-105.05c-3.5898 0-6.4961-2.9062-6.4961-6.4961z"/>
  <path d="m546 260.73c-33.602-44.801-67.535-28.617-97.609-14.168-3.6953 1.793-7.4492 3.5859-11.199 5.2656-3.7539-1.6797-7.4492-3.4727-11.199-5.2656-30.07-14.449-64.23-30.855-97.664 14.168s1.7344 105.67 13.328 123.2v0.003906c0.85547 1.293 1.3945 2.7695 1.5664 4.3086 8.5117 73.527 22.398 110.82 40.375 110.82 16.352 0 42.895-22.398 44.52-82.152l0.003906 0.003906c-0.13281-5.5352 3.0039-10.625 8.0078-12.992 0.64453-0.35938 1.4258-0.35938 2.0703 0 4.9922 2.375 8.1289 7.4609 8.0078 12.992v0.28125c1.625 59.809 28 82.152 44.52 82.152 18.312 0 31.863-37.297 40.434-110.77 0.15234-1.5391 0.67188-3.0195 1.5117-4.3125 11.535-17.809 46.93-78.457 13.328-123.54zm-24.473 115.87c-1.9844 3.0273-3.2305 6.4805-3.6406 10.078-7.8398 67.594-20.887 99.062-27.215 99.062-7.8398 0-29.848-16.406-31.246-69.273v0.003906c0.019531-5.0664-1.3711-10.035-4.0117-14.355-2.6367-4.3203-6.4258-7.8242-10.941-10.117-4.6055-2.5195-10.18-2.5195-14.785 0-4.5117 2.3047-8.2969 5.8203-10.926 10.152-2.6289 4.332-4.0039 9.3086-3.9688 14.375-1.4023 52.809-23.352 69.215-31.191 69.215-6.3281 0-19.375-31.473-27.215-99.062h-0.003907c-0.41016-3.5977-1.6562-7.0508-3.6406-10.078-7.4453-11.145-42.84-68.602-13.941-107.8 13.273-17.863 25.816-24.137 38.754-24.137s26.992 6.5508 42.281 13.945h-0.003907c-5.832 1.8672-11.91 2.8672-18.031 2.9648-3.6641 0-6.6367 2.9727-6.6367 6.6367 0 3.668 2.9727 6.6367 6.6367 6.6367 18.426 0 35.504-8.2305 52.078-16.129 30.352-14.559 54.32-26.098 81.258 10.078 29.176 39.203-5.9375 96.66-13.609 107.8z"/>
  <path d="m206.47 169.79c-6.1055 0-11.961 2.4258-16.277 6.7422-4.3125 4.3125-6.7383 10.168-6.7383 16.273 0 6.1055 2.4258 11.957 6.7383 16.273 4.3164 4.3164 10.172 6.7422 16.277 6.7422 6.1055 0 11.957-2.4258 16.273-6.7422 4.3164-4.3164 6.7422-10.168 6.7422-16.273-0.015625-6.1016-2.4453-11.945-6.7578-16.258s-10.16-6.7422-16.258-6.7578zm0 32.762v-0.003907c-3.9414 0-7.4961-2.3711-9.0039-6.0156-1.5078-3.6406-0.67188-7.832 2.1133-10.617 2.7852-2.7852 6.9766-3.6211 10.617-2.1133 3.6445 1.5078 6.0156 5.0625 6.0156 9.0039 0 2.582-1.0273 5.0625-2.8516 6.8906-1.8281 1.8281-4.3086 2.8516-6.8906 2.8516z"/>
  <path d="m206.47 235.2c-6.1055 0-11.961 2.4258-16.277 6.7422-4.3125 4.3164-6.7383 10.172-6.7383 16.273 0 6.1055 2.4258 11.961 6.7383 16.277 4.3164 4.3164 10.172 6.7383 16.277 6.7383 6.1055 0 11.957-2.4219 16.273-6.7383 4.3164-4.3164 6.7422-10.172 6.7422-16.277-0.015625-6.0977-2.4453-11.945-6.7578-16.258s-10.16-6.7422-16.258-6.7578zm0 32.762c-3.9414 0-7.4961-2.375-9.0039-6.0156-1.5078-3.6406-0.67188-7.832 2.1133-10.621 2.7852-2.7852 6.9766-3.6172 10.617-2.1094 3.6445 1.5078 6.0156 5.0586 6.0156 9 0.03125 2.6055-0.98047 5.1133-2.8125 6.9648-1.832 1.8516-4.3281 2.8906-6.9297 2.8906z"/>
  <path d="m206.47 300.83c-6.1055 0-11.961 2.4258-16.277 6.7422-4.3125 4.3164-6.7383 10.168-6.7383 16.273 0 6.1055 2.4258 11.957 6.7383 16.273 4.3164 4.3164 10.172 6.7422 16.277 6.7422 6.1055 0 11.957-2.4258 16.273-6.7422s6.7422-10.168 6.7422-16.273c-0.015625-6.0977-2.4453-11.945-6.7578-16.258s-10.16-6.7422-16.258-6.7578zm0 32.762c-3.9414 0-7.4961-2.375-9.0039-6.0156s-0.67188-7.832 2.1133-10.621c2.7852-2.7852 6.9766-3.6211 10.617-2.1094 3.6445 1.5078 6.0156 5.0586 6.0156 9 0.015625 2.5938-1.0039 5.0859-2.832 6.9258-1.8281 1.8398-4.3164 2.875-6.9102 2.875z"/>
  <path d="m206.47 366.41c-6.1055 0-11.961 2.4258-16.277 6.7422-4.3125 4.3164-6.7383 10.172-6.7383 16.277 0 6.1016 2.4258 11.957 6.7383 16.273 4.3164 4.3164 10.172 6.7422 16.277 6.7422 6.1055 0 11.957-2.4258 16.273-6.7422 4.3164-4.3164 6.7422-10.172 6.7422-16.273 0-6.1055-2.4258-11.961-6.7422-16.277-4.3164-4.3164-10.168-6.7422-16.273-6.7422zm0 32.762c-3.9414 0-7.4961-2.375-9.0039-6.0156s-0.67188-7.832 2.1133-10.617c2.7852-2.7891 6.9766-3.6211 10.617-2.1133 3.6445 1.5078 6.0156 5.0625 6.0156 9.0039 0 5.3789-4.3633 9.7422-9.7422 9.7422z"/>
  <path d="m258.61 199.47h32.367c3.4297-0.31641 6.0547-3.1914 6.0547-6.6367 0-3.4453-2.625-6.3203-6.0547-6.6367h-32.367c-3.4297 0.31641-6.0547 3.1914-6.0547 6.6367 0 3.4453 2.625 6.3203 6.0547 6.6367z"/>
  <path d="m324.41 186.2c-1.8633-0.17188-3.7148 0.44922-5.1016 1.7148-1.3828 1.2617-2.1719 3.0469-2.1719 4.9219s0.78906 3.6602 2.1719 4.9219c1.3867 1.2656 3.2383 1.8867 5.1016 1.7148h80.25c3.4297-0.31641 6.0547-3.1914 6.0547-6.6367 0-3.4453-2.625-6.3203-6.0547-6.6367z"/>
  <path d="m300.61 251.72h-42c-3.4297 0.31641-6.0547 3.1914-6.0547 6.6367 0 3.4453 2.625 6.3203 6.0547 6.6367h42c3.4297-0.31641 6.0508-3.1914 6.0508-6.6367 0-3.4453-2.6211-6.3203-6.0508-6.6367z"/>
  <path d="m258.61 330.4h30.406c1.8672 0.17187 3.7188-0.44922 5.1016-1.7109 1.3828-1.2617 2.1719-3.0508 2.1719-4.9219 0-1.875-0.78906-3.6641-2.1719-4.9258-1.3828-1.2617-3.2344-1.8828-5.1016-1.7109h-30.406c-3.4297 0.31641-6.0547 3.1914-6.0547 6.6367 0 3.4414 2.625 6.3203 6.0547 6.6328z"/>
  <path d="m258.61 396.09h56.949c3.4297-0.31641 6.0547-3.1953 6.0547-6.6367 0-3.4453-2.625-6.3203-6.0547-6.6367h-56.949c-3.4297 0.31641-6.0547 3.1914-6.0547 6.6367 0 3.4414 2.625 6.3203 6.0547 6.6367z"/>
  <use x="70" y="644" xlink:href="#v"/>
  <use x="90.550781" y="644" xlink:href="#e"/>
  <use x="104.359375" y="644" xlink:href="#a"/>
  <use x="123.347656" y="644" xlink:href="#d"/>
  <use x="142.242188" y="644" xlink:href="#c"/>
  <use x="155.628906" y="644" xlink:href="#a"/>
  <use x="174.617188" y="644" xlink:href="#k"/>
  <use x="204.410156" y="644" xlink:href="#j"/>
  <use x="224.453125" y="644" xlink:href="#b"/>
  <use x="252.453125" y="644" xlink:href="#i"/>
  <use x="275.695312" y="644" xlink:href="#h"/>
  <use x="285.289062" y="644" xlink:href="#b"/>
  <use x="303.542969" y="644" xlink:href="#d"/>
  <use x="322.4375" y="644" xlink:href="#g"/>
  <use x="352.117188" y="644" xlink:href="#u"/>
  <use x="373.789062" y="644" xlink:href="#h"/>
  <use x="383.386719" y="644" xlink:href="#t"/>
  <use x="400.054688" y="644" xlink:href="#b"/>
  <use x="418.304688" y="644" xlink:href="#d"/>
  <use x="437.199219" y="644" xlink:href="#g"/>
  <use x="70" y="672" xlink:href="#s"/>
  <use x="82.183594" y="672" xlink:href="#e"/>
  <use x="95.992188" y="672" xlink:href="#f"/>
  <use x="115.226562" y="672" xlink:href="#r"/>
  <use x="154.152344" y="672" xlink:href="#c"/>
  <use x="167.535156" y="672" xlink:href="#g"/>
  <use x="187.46875" y="672" xlink:href="#a"/>
  <use x="216.207031" y="672" xlink:href="#q"/>
  <use x="239.640625" y="672" xlink:href="#f"/>
  <use x="258.878906" y="672" xlink:href="#p"/>
  <use x="278.8125" y="672" xlink:href="#o"/>
  <use x="308.492188" y="672" xlink:href="#n"/>
  <use x="329.015625" y="672" xlink:href="#e"/>
  <use x="342.820312" y="672" xlink:href="#f"/>
  <use x="362.058594" y="672" xlink:href="#m"/>
  <use x="371.65625" y="672" xlink:href="#a"/>
  <use x="390.648438" y="672" xlink:href="#l"/>
  <use x="407.242188" y="672" xlink:href="#c"/>
 </g>
</svg>
