<?xml version="1.0" encoding="UTF-8"?>
<svg width="100pt" height="100pt" version="1.1" viewBox="100 50 550 460"  xmlns="http://www.w3.org/2000/svg" xmlns:xlink="http://www.w3.org/1999/xlink">
 <g>
  <path d="m366.31 234.95c3.3906-0.92969 6.9648-0.94922 10.363-0.050781 3.3984 0.89844 6.5 2.6797 8.9883 5.168l4.4844 4.5078v-0.003906c4.9492 5.0039 6.8672 12.262 5.0312 19.055-0.93359 3.668 1.2539 7.4023 4.9062 8.3867 0.5625 0.16797 1.1523 0.23828 1.7383 0.21094 3.1211 0 5.8477-2.1016 6.6445-5.1172 2.7969-10.246 0.51172-21.215-6.1406-29.492l52.719-52.805c12.449 10.34 28.133 15.988 44.316 15.953 21.371 0.019532 41.582-9.7227 54.879-26.457 13.297-16.73 18.227-38.617 13.383-59.434-4.8438-20.816-18.93-38.277-38.246-47.422-19.32-9.1406-41.754-8.9609-60.922 0.49219s-32.969 27.145-37.477 48.035c-4.5078 20.891 0.77344 42.695 14.34 59.211l-52.699 52.613c-8.457-6.7891-19.699-9.0117-30.102-5.9531-1.75 0.47656-3.2344 1.6328-4.1211 3.2148-0.88672 1.582-1.1016 3.4531-0.59375 5.1914 0.45703 1.7852 1.6289 3.2969 3.2383 4.1875 1.6133 0.88672 3.5195 1.0742 5.2695 0.50781zm93.348-143.91c10.531-10.531 24.816-16.449 39.715-16.449 14.895 0 29.18 5.918 39.711 16.449s16.449 24.816 16.449 39.715c0 14.895-5.918 29.18-16.449 39.711-10.531 10.535-24.816 16.449-39.711 16.449-14.898 0-29.184-5.9141-39.715-16.449-10.457-10.574-16.32-24.844-16.32-39.711 0-14.871 5.8633-29.141 16.32-39.715zm-181.39 218.85c-2.6875-2.6602-7.0195-2.6602-9.707 0l-131.94 132.02c-3.8477 3.6836-6.0039 8.7969-5.9531 14.125-0.050781 5.3945 2.0977 10.57 5.9531 14.34l23.227 23.121c3.7539 3.8086 8.875 5.9531 14.223 5.9531s10.469-2.1445 14.223-5.9531l131.94-131.83c1.3281-1.2852 2.0742-3.0547 2.0742-4.9062 0-1.8477-0.74609-3.6172-2.0742-4.9023zm-99.68 173.99c-2.4922 2.4727-6.5156 2.4727-9.0117 0l-23.227-23.332c-2.4609-2.5-2.4609-6.5117 0-9.0117l127.12-127.12 32.133 32.344zm207.15-197.53h-0.082032l-47-46.895c-5.8672-5.8672-13.66-9.4102-21.941-9.9727-8.2773-0.5625-16.48 1.8945-23.086 6.9141l-51.379-51.379c-4.9688-5.1016-11.484-8.418-18.531-9.4336l-59.891-9.2031c-1.7617-0.33203-3.3125-1.3711-4.2969-2.8711-1.0273-1.4961-1.3281-3.375-0.81641-5.1172l25.195-97.246v0.003907c0.96875-3.7305-1.2188-7.5469-4.9258-8.5977-1.7891-0.4375-3.6797-0.14453-5.2539 0.8125-1.5742 0.96094-2.7031 2.5117-3.1289 4.3047l-25.281 97.242c-1.4219 5.5234-0.45703 11.391 2.6602 16.164 3.0977 4.8125 8.1445 8.0312 13.816 8.8047l59.766 9.4336c4.168 0.55859 8.0273 2.5 10.961 5.5117l51.379 51.379c-4.9883 6.625-7.4219 14.824-6.8555 23.098 0.56641 8.2734 4.0938 16.066 9.9375 21.949l46.977 46.871 163.36 163.57c3.9219 3.8047 9.168 5.9336 14.633 5.9336 5.4648 0 10.711-2.1289 14.633-5.9336l22.516-22.723h-0.003906c3.8398-3.8633 5.9922-9.0898 5.9922-14.535 0-5.4492-2.1523-10.672-5.9922-14.539zm-37.145 46.871 32.242-32.137 13.602 13.711-32.242 32.137zm-23.438-23.332 32.242-32.156 13.605 13.52-32.137 32.348zm-28.465-57.73 1.4453-1.4453 1.5312-1.6367c3.918-3.8047 9.168-5.9336 14.629-5.9336 5.4648 0 10.711 2.1289 14.633 5.9336l18.742 18.844-32.242 32.137-18.742-18.637 0.003907 0.003906c-3.8789-3.8867-6.0547-9.1484-6.0547-14.633 0-5.4883 2.1758-10.75 6.0547-14.633zm242.6 217.19-22.43 22.516c-2.6953 2.6602-7.0312 2.6602-9.7266 0l-135.11-135.11 32.242-32.344 135.02 135.1c1.3164 1.2969 2.0586 3.0703 2.0586 4.918s-0.74219 3.6172-2.0586 4.9141z"/>
 </g>
</svg>
