<?xml version="1.0" encoding="UTF-8"?>
<svg width="100pt" height="100pt" version="1.1" viewBox="100 80 530 400" xmlns="http://www.w3.org/2000/svg" fill='white'>
 <path d="m565.07 154.7c14.176 69.824-33.602 144.9-48.648 166.07-1.9258 2.8008-3.1484 6.125-3.6758 9.625-8.75 72.801-29.926 194.6-71.574 194.6-24.5 0-76.301-35-79.273-142.98v-0.35156c0-14.699-9.625-22.926-17.676-26.949-2.8008-1.5742-6.3008-1.5742-9.2734 0-8.0508 4.0234-17.676 12.074-17.676 26.949v0.35156c-2.9766 107.98-54.777 142.98-79.453 142.98-41.477 0-62.648-121.8-71.574-194.6-0.35156-3.5-1.5742-6.8242-3.6758-9.625-21.523-30.625-87.324-137.2-25.551-215.95 60.898-77.352 120.93-50.227 178.85-23.801 7.6992 3.5 15.574 7 23.625 10.324 7.875-3.3242 15.926-6.8242 23.625-10.324 37.449-16.977 76.301-34.648 115.5-23.273 4.0234 1.0508 6.3008 5.25 5.0742 9.2734-1.0508 4.0234-5.25 6.125-9.1016 5.0742-33.949-9.9727-68.598 5.9531-105.35 22.402-8.75 4.0234-17.676 7.875-26.602 11.727-0.17578 0-0.35156 0.17578-0.52344 0.17578-22.398 9.2734-45.324 16.449-69.301 16.449-4.0234 0-7.3516-3.3242-7.3516-7.5234 0-4.0234 3.3242-7.3516 7.3516-7.3516 15.75 0 31.5-3.6758 47.074-9.1016-3.3242-1.5742-6.6484-3.1484-9.9766-4.5508-57.574-26.074-107.45-48.648-161 19.602-56.875 72.273 11.727 177.8 26.074 198.27 3.3242 4.5508 5.4258 10.324 6.125 16.273 13.301 106.57 36.574 181.3 56.875 181.3 19.074 0 61.773-32.375 64.398-128.45 0.17578-23.273 16.273-35.352 25.898-40.074 7-3.6758 15.574-3.6758 22.75 0 9.625 4.8984 25.727 16.801 25.898 40.074 2.625 96.074 45.324 128.45 64.398 128.45 20.301 0 43.75-74.727 56.875-181.3 0.69922-5.9492 2.8008-11.727 6.125-16.273 14.176-19.949 59.148-90.824 46.199-154.7-0.875-4.0234 1.75-8.2266 5.7734-8.75 4.0391-0.69922 7.8867 1.9258 8.7617 5.9492zm23.625-57.398c0 4.1992-3.3242 7.5234-7.3516 7.5234-26.25 0-47.426 21.176-47.426 47.426 0 4.1992-3.3242 7.5234-7.3516 7.5234-4.1992 0-7.5234-3.3242-7.5234-7.5234 0-26.25-21.176-47.426-47.426-47.426-4.0234 0-7.3516-3.3242-7.3516-7.5234 0-4.0234 3.3242-7.5234 7.3516-7.5234 26.25 0 47.426-21.176 47.426-47.426 0-4.1992 3.3242-7.5234 7.5234-7.5234 4.0234 0 7.3516 3.3242 7.3516 7.5234 0 26.25 21.352 47.426 47.426 47.426 4.0273 0.17188 7.3516 3.6719 7.3516 7.5234zm-36.926 0c-10.676-5.7734-19.602-14.699-25.375-25.375-5.7734 10.5-14.699 19.602-25.375 25.375 10.676 5.7734 19.602 14.699 25.375 25.375 5.7773-10.5 14.703-19.602 25.375-25.375zm-119.17 121.45c0 26.25 21.352 47.426 47.426 47.426 4.0234 0 7.3516 3.5 7.3516 7.5234 0 4.1992-3.3242 7.5234-7.3516 7.5234-26.25 0-47.426 21.176-47.426 47.426 0 4.1992-3.3242 7.5234-7.3516 7.5234-4.0234 0-7.5234-3.3242-7.5234-7.5234 0-26.25-21.176-47.426-47.426-47.426-4.0234 0-7.3516-3.3242-7.3516-7.5234 0-4.0234 3.3242-7.5234 7.3516-7.5234 26.25 0 47.426-21.176 47.426-47.426 0-4.0234 3.3242-7.5234 7.5234-7.5234 4.0234 0 7.3516 3.5 7.3516 7.5234zm-7.5273 29.574c-5.7734 10.852-14.699 19.602-25.375 25.375 10.852 5.7734 19.602 14.699 25.375 25.551 5.7734-10.852 14.699-19.773 25.375-25.551-10.676-5.7734-19.598-14.699-25.375-25.375zm-123.9-46.723c4.1992 0 7.5234 3.3242 7.5234 7.3516 0 4.1992-3.3242 7.5234-7.5234 7.5234-26.074 0-47.426 21.352-47.426 47.602 0 4.0234-3.3242 7.3516-7.5234 7.3516-4.0234 0-7.3516-3.3242-7.3516-7.3516 0-26.25-21.176-47.602-47.426-47.602-4.0234 0-7.5234-3.3242-7.5234-7.5234 0-4.0234 3.5-7.3516 7.5234-7.3516 26.25 0 47.426-21.352 47.426-47.602 0-4.1992 3.3242-7.3516 7.3516-7.3516 4.0234 0 7.5234 3.1484 7.5234 7.3516 0.17578 26.25 21.352 47.602 47.426 47.602zm-29.402 7.1719c-10.852-5.7734-19.602-14.523-25.375-25.375-5.7734 10.852-14.699 19.602-25.375 25.375 10.852 5.9492 19.773 14.699 25.375 25.551 5.7773-10.676 14.703-19.598 25.375-25.551z"/>
</svg>
