<?xml version="1.0" encoding="UTF-8"?>
<svg width="100pt" height="100pt" version="1.1" viewBox="100 20 510 520" fill='white' xmlns="http://www.w3.org/2000/svg" xmlns:xlink="http://www.w3.org/1999/xlink">
 <g>
  <path d="m470.4 194.32c0 65.875-53.402 119.28-119.28 119.28-65.879 0-119.28-53.406-119.28-119.28s53.402-119.28 119.28-119.28c65.875 0 119.28 53.406 119.28 119.28"/>
  <path d="m556.64 454.72c-23.52-65.52-76.719-116.48-143.92-136.08-2.2383-0.55859-4.4805-0.55859-6.1602 0.55859-16.801 8.9609-35.281 14-55.441 14-20.16 0-38.641-5.0391-55.441-14-1.6797-1.1211-3.9219-1.1211-6.1602-0.55859-67.199 19.602-120.4 70.559-143.92 136.08-6.7188 18.48 6.7188 37.52 26.32 37.52h358.96c19.047 0 32.484-19.598 25.766-37.52z"/>
 </g>
</svg>
