<?xml version="1.0" encoding="UTF-8"?>
<svg width="100pt" height="100pt" version="1.1" viewBox="100 10 550 550"  xmlns="http://www.w3.org/2000/svg" xmlns:xlink="http://www.w3.org/1999/xlink">
 <g>
  <path d="m444.18 105.64-132.96-49.383c-8.0625-2.9688-16.969-2.9688-25.031 0l-132.95 49.383c-5.4297 2.0352-8.9922 7.1289-8.9922 12.898 0 5.7695 3.5625 10.859 8.9922 12.898l132.96 49.383c4.0742 1.5273 8.2305 2.207 12.473 2.207 4.2422 0 8.4844-0.76172 12.473-2.207l109.2-40.559-8.3984 56.508c-0.76172 7.1289 1.5273 14.34 6.2773 19.684s11.711 8.3984 18.836 8.3984c7.2109 0 14.086-3.0547 18.836-8.3984 4.8359-5.3438 7.1289-12.559 6.2773-19.684v-0.25391l-10.691-71.867c0.93359-1.8672 1.6133-3.9023 1.6133-6.1953 0-5.7695-3.4766-10.777-8.9062-12.812zm-137.37 63.211c-5.2617 1.9531-10.945 1.9531-16.207 0l-132.96-49.383c-0.16797-0.085938-0.67969-0.25391-0.67969-0.93359s0.50781-0.93359 0.67969-0.93359l132.96-49.379c2.6289-0.93359 5.3438-1.4414 8.0625-1.4414 2.7148 0 5.5156 0.50781 8.0625 1.4414l132.96 49.383c0.16797 0.085938 0.67969 0.25391 0.67969 0.93359 0 0.25391-0.085938 0.42578-0.16797 0.59375-0.16797 0.16797-0.33984 0.25391-0.50781 0.42578zm139.66 39.117c-4.8359 5.4297-13.914 5.4297-18.75 0-2.4609-2.7148-3.5625-6.1953-3.1406-9.5039l9.418-63.211 3.0547-1.1016 2.8008-1.0195 9.7578 65.332c0.42188 3.3945-0.76562 6.8711-3.1406 9.5039z"/>
  <path d="m394.55 353.9c0 54.98 44.715 99.695 99.695 99.695 54.98 0 99.695-44.715 99.695-99.695 0-20.703-6.2773-40.473-18.156-57.359-2.0352-2.8867-6.0234-3.5625-8.8242-1.5273-2.8867 2.0352-3.5625 6.0234-1.5273 8.8242 10.352 14.68 15.781 31.988 15.781 49.977 0 47.938-39.031 86.969-86.969 86.969s-86.969-39.031-86.969-86.969 39.031-86.883 86.969-86.883c20.195 0 39.793 7.043 55.32 19.855 2.7148 2.207 6.7031 1.8672 8.9922-0.84766 2.207-2.7148 1.8672-6.7031-0.84766-8.9922-17.816-14.68-40.305-22.824-63.465-22.824-54.98 0.082031-99.695 44.797-99.695 99.777z"/>
  <path d="m494.24 288.14c-36.23 0-65.758 29.527-65.758 65.758 0 36.23 29.527 65.758 65.758 65.758 36.23 0 65.758-29.527 65.758-65.758 0-36.23-29.527-65.758-65.758-65.758zm0 118.79c-29.273 0-53.031-23.758-53.031-53.031 0-29.273 23.758-53.031 53.031-53.031 29.273 0 53.031 23.758 53.031 53.031 0 29.273-23.758 53.031-53.031 53.031z"/>
  <path d="m513.5 332.44-29.441 29.441-9.0781-9.0781c-2.4609-2.4609-6.5352-2.4609-8.9922 0-2.4609 2.4609-2.4609 6.5352 0 8.9922l13.574 13.574c1.2734 1.2734 2.8867 1.8672 4.4961 1.8672 1.6133 0 3.2227-0.59375 4.4961-1.8672l33.938-33.938c2.4609-2.4609 2.4609-6.5352 0-8.9922-2.4609-2.4609-6.5312-2.4609-8.9922 0z"/>
  <path d="m366.97 282.12h-220.61c-3.4805 0-6.3633 2.8867-6.3633 6.3633 0 3.4805 2.8867 6.3633 6.3633 6.3633h220.61c3.4805 0 6.3633-2.8867 6.3633-6.3633s-2.8828-6.3633-6.3633-6.3633z"/>
  <path d="m366.97 333.03h-220.61c-3.4805 0-6.3633 2.8867-6.3633 6.3633 0 3.4766 2.8867 6.3633 6.3633 6.3633h220.61c3.4805 0 6.3633-2.8867 6.3633-6.3633 0-3.4805-2.8828-6.3633-6.3633-6.3633z"/>
  <path d="m373.33 390.3c0-3.4805-2.8867-6.3633-6.3633-6.3633l-220.61-0.003906c-3.4805 0-6.3633 2.8867-6.3633 6.3633 0 3.4805 2.8867 6.3672 6.3633 6.3672h220.61c3.4805 0 6.3633-2.8867 6.3633-6.3633z"/>
  <path d="m282.12 434.85h-135.76c-3.4805 0-6.3633 2.8867-6.3633 6.3633 0 3.4805 2.8867 6.3633 6.3633 6.3633h135.76c3.4805 0 6.3633-2.8867 6.3633-6.3633 0-3.4766-2.8828-6.3633-6.3633-6.3633z"/>
  <path d="m282.12 485.76h-135.76c-3.4805 0-6.3633 2.8867-6.3633 6.3633 0 3.4805 2.8867 6.3633 6.3633 6.3633h135.76c3.4805 0 6.3633-2.8867 6.3633-6.3633 0-3.4805-2.8828-6.3633-6.3633-6.3633z"/>
  <path d="m494.24 466.33c-3.4805 0-6.3633 2.8867-6.3633 6.3633v36.398c0 15.188-12.387 27.574-27.574 27.574l-322.43 0.003907c-15.188 0-27.574-12.387-27.574-27.574v-458.18c0-15.188 12.387-27.574 27.574-27.574h22.062c3.4805 0 6.3633-2.8867 6.3633-6.3633 0-3.4805-2.8867-6.3633-6.3633-6.3633l-22.062-0.003906c-22.23 0-40.305 18.074-40.305 40.305v458.18c0 22.23 18.074 40.305 40.305 40.305h322.43c22.23 0 40.305-18.074 40.305-40.305v-36.398c-0.003906-3.5664-2.8867-6.3672-6.3672-6.3672z"/>
  <path d="m182.76 23.332h277.54c15.188 0 27.574 12.387 27.574 27.574v184.21c0 3.4805 2.8867 6.3633 6.3633 6.3633 3.4805 0 6.3633-2.8867 6.3633-6.3633v-184.2c0-22.23-18.074-40.305-40.305-40.305h-277.54c-3.4805 0-6.3633 2.8867-6.3633 6.3633 0 3.4805 2.8008 6.3633 6.3633 6.3633z"/>
  <path d="m392.85 480.58 30.375-1.9531 13.492 27.238c1.0195 2.1211 3.1406 3.4805 5.5156 3.5625h0.16797c2.2891 0 4.4141-1.1875 5.5156-3.2227l20.109-34.871c1.7812-3.0547 0.67969-6.957-2.2891-8.6562-3.0547-1.7812-6.957-0.67969-8.6562 2.2891l-14.168 24.52-10.098-20.363c-1.1016-2.2891-3.4805-3.6484-6.1094-3.5625l-22.738 1.4414 13.914-24.094c1.7812-3.0547 0.67969-6.957-2.2891-8.6562-3.0547-1.7812-6.957-0.67969-8.6562 2.2891l-19.938 34.535c-1.1875 2.0352-1.1016 4.582 0.085937 6.5352 1.1836 1.9492 3.3906 3.0547 5.7656 2.9688z"/>
  <path d="m601.57 471.08-19.938-34.535c-1.7812-3.0547-5.6836-4.0742-8.6562-2.2891-3.0547 1.7812-4.0742 5.6836-2.2891 8.6562l14 24.184-22.738-1.4414c-2.4609-0.16797-5.0078 1.2734-6.1094 3.5625l-10.098 20.363-14.168-24.52c-1.7812-3.0547-5.6016-4.0742-8.6562-2.2891-3.0547 1.7812-4.0742 5.6836-2.2891 8.6562l20.109 34.871c1.1016 1.9531 3.2227 3.2227 5.5156 3.2227h0.16797c2.375-0.085937 4.4961-1.4414 5.5156-3.5625l13.492-27.238 30.375 1.9531c2.2891 0.085937 4.582-1.0195 5.7695-2.9688 1.1016-2.1289 1.1836-4.5898-0.003906-6.625z"/>
  <path d="m397.09 192.78v-21.129c0-3.4805-2.8867-6.3633-6.3633-6.3633-3.4805 0-6.3633 2.8867-6.3633 6.3633v21.129c0 9.418-6.0234 17.902-14.68 20.703-46.414 14.762-95.539 14.762-141.95 0-8.6562-2.7148-14.68-11.285-14.68-20.703v-21.129c0-3.4805-2.8867-6.3633-6.3633-6.3633-3.4805 0-6.3633 2.8867-6.3633 6.3633v21.129c0 15.102 9.5039 28.34 23.586 32.836 24.438 7.8047 49.637 11.711 74.836 11.711 25.199 0 50.316-3.9023 74.836-11.711 14.004-4.582 23.508-17.734 23.508-32.836z"/>
 </g>
</svg>
